<svg xmlns="http://www.w3.org/2000/svg" width="32" height="32" viewBox="0 0 32 32" fill="none">
  <path d="M1.54848 16.1005C11.0865 16.1005 20.6246 16.1005 30.4517 16.1005C30.4943 18.4089 30.5369 20.7174 30.5807 23.0959C30.5995 23.8225 30.6183 24.5491 30.6377 25.2978C30.6428 25.8697 30.648 26.4416 30.6533 27.0308C30.6641 27.6169 30.6749 28.2031 30.6861 28.807C30.4517 30.2746 30.4517 30.2746 29.563 31.0871C28.2028 31.8434 27.423 31.9289 25.8558 31.9383C25.3546 31.9445 24.8535 31.9507 24.3371 31.9571C23.7994 31.9557 23.2617 31.9543 22.7078 31.9528C21.8756 31.9566 21.8756 31.9566 21.0267 31.9605C19.8549 31.9637 18.6831 31.963 17.5113 31.9589C15.7146 31.9547 13.9187 31.9688 12.1221 31.9843C10.984 31.9851 9.84585 31.9848 8.70775 31.9833C7.89966 31.9916 7.89966 31.9916 7.07525 32C6.5757 31.9954 6.07614 31.9908 5.56146 31.9861C5.12184 31.986 4.68223 31.9859 4.22929 31.9858C3.09686 31.7409 3.09686 31.7409 1.54848 29.7858C1.54848 25.2696 1.54848 20.7535 1.54848 16.1005Z" fill="#BBC3C9"/>
  <path d="M11.871 0.46011C13.2258 1.65147 13.2258 1.65147 14.4516 2.90392C15.4508 3.64339 15.4508 3.64339 16.5161 3.88144C17.6511 3.62923 17.6511 3.62923 18.5806 2.90392C18.719 2.58134 18.8574 2.25875 19 1.9264C19.6129 0.948872 19.6129 0.948872 21.3548 0.276824C23.2258 -0.0286521 23.2258 -0.0286521 24.4194 0.276824C25.488 1.1014 25.9081 1.65505 26.3226 2.90392C26.129 4.24802 26.129 4.24802 25.8064 5.34773C26.4452 5.30741 27.0839 5.26709 27.7419 5.22554C28.8306 5.15681 28.8306 5.15681 29.9355 5.34773C32 7.30278 32 7.30278 32 13.6567C21.44 13.6567 10.88 13.6567 0 13.6567C0 7.30278 0 7.30278 2.06452 5.34773C3.50009 5.09966 4.72037 5.25473 6.19355 5.34773C6.14032 4.73281 6.0871 4.11788 6.03226 3.48433C6.03427 2.40752 6.03427 2.40752 6.19355 1.43763C8.01694 -0.238286 9.51547 -0.283423 11.871 0.46011Z" fill="#BBC3C9"/>
</svg>