<svg xmlns="http://www.w3.org/2000/svg" width="32" height="32" viewBox="0 0 32 32" fill="none">
  <path d="M13.5344 1.37975C9.66594 4.65136 1.31001 12.677 0.691054 13.6994C-0.288962 15.3352 -0.185803 29.3418 0.742634 30.6709C1.36159 31.4888 2.23845 31.6933 6.41641 31.7955L11.3681 32V27.6549C11.3681 21.0605 12.4512 19.1691 16.1134 19.118C19.5693 19.118 20.6524 21.2139 20.6524 28.115V31.8978H25.2946C32.0516 31.8978 32 31.9489 32 21.8784V13.955L26.7388 8.94535C19.9303 2.50436 17.5061 0.459604 16.3713 0.0506535C15.8039 -0.153824 14.8239 0.255129 13.5344 1.37975Z" fill="#BBC3C9"/>
</svg>