<svg xmlns="http://www.w3.org/2000/svg" width="32" height="32" viewBox="0 0 32 32" fill="none">
  <path d="M5.59776 0.104757C6.10451 0.0998797 6.61127 0.0950025 7.13337 0.0899775C7.68243 0.0878201 8.23149 0.0856627 8.79719 0.0834399C9.35949 0.0805463 9.9218 0.0776527 10.5011 0.0746714C11.692 0.0698704 12.8829 0.0665558 14.0738 0.0646016C15.8995 0.0596693 17.7248 0.0439216 19.5504 0.0279166C20.7057 0.0246023 21.861 0.0219367 23.0163 0.0199847C23.5644 0.0137169 24.1124 0.00744917 24.677 0.000991488C25.1854 0.00251497 25.6937 0.00403845 26.2175 0.0056081C26.8889 0.00283209 26.8889 0.00283209 27.5739 0C28.9773 0.228047 29.4081 0.593967 30.2557 1.70948C30.7488 3.17845 30.8738 4.26152 30.9513 5.79627C30.9783 6.3181 31.0054 6.83992 31.0332 7.37756C31.1436 9.75622 31.2532 12.1349 31.3547 14.5139C31.4102 15.7702 31.4703 17.0263 31.535 18.2821C31.6281 20.0913 31.7073 21.9006 31.7835 23.7106C31.8148 24.2727 31.8461 24.8349 31.8784 25.4141C31.8973 25.9375 31.9163 26.4609 31.9359 27.0002C31.957 27.4601 31.9782 27.9199 32 28.3937C31.7115 30.0872 31.1254 30.6512 29.7445 31.6603C28.4414 31.9216 28.4414 31.9216 26.9554 31.9311C26.3976 31.9392 25.8397 31.9472 25.265 31.9555C24.6653 31.953 24.0656 31.9505 23.4477 31.9479C22.8301 31.951 22.2125 31.9542 21.5762 31.9574C20.2711 31.961 18.9659 31.9594 17.6608 31.953C15.6588 31.9459 13.6579 31.9632 11.656 31.9826C10.3889 31.9831 9.12171 31.9821 7.85457 31.9796C7.25384 31.9863 6.65311 31.9931 6.03417 32C5.47793 31.9936 4.92169 31.9873 4.34859 31.9807C3.85864 31.9802 3.36869 31.9797 2.86389 31.9792C1.62571 31.6603 1.62571 31.6603 0.697114 30.4655C-0.0400134 28.8292 -0.0485062 27.7224 0.0360453 25.9355C0.0613769 25.3131 0.0867085 24.6907 0.112808 24.0494C0.148107 23.3886 0.183407 22.7277 0.219776 22.0469C0.251115 21.3635 0.281773 20.6801 0.311766 19.9967C0.373281 18.6198 0.43929 17.2432 0.508602 15.8667C0.594724 14.07 0.662864 12.274 0.72104 10.4762C0.756199 9.47878 0.791473 8.48134 0.826885 7.48391C0.847397 6.79981 0.847397 6.79981 0.868324 6.1019C0.885624 5.6824 0.902923 5.2629 0.920747 4.83068C0.933557 4.47036 0.946367 4.11005 0.959565 3.73881C1.14127 2.54929 1.50673 1.71881 2.13696 0.694196C3.38439 0.0748827 4.20334 0.115564 5.59776 0.104757Z" fill="#BBC3C9"/>
  <path d="M9.29455 4.75537C9.9694 4.92289 10.6442 5.09041 11.3395 5.26301C11.3587 5.56337 11.3778 5.86374 11.3975 6.1732C11.6414 9.55283 11.6414 9.55283 13.3845 12.37C15.4221 12.9695 16.4862 13.0939 18.4331 12.2114C19.7238 11.1937 19.9774 10.7387 20.1926 9.12982C20.2341 8.67044 20.2756 8.21106 20.3184 7.73777C20.3612 7.27577 20.404 6.81378 20.4482 6.33779C20.4946 5.80577 20.4946 5.80577 20.542 5.26301C21.2169 5.26301 21.8917 5.26301 22.587 5.26301C22.6288 6.22505 22.6583 7.18761 22.6829 8.15023C22.7096 8.95413 22.7096 8.95413 22.7368 9.77428C22.5225 12.0358 21.6912 13.3527 19.9669 14.813C17.2985 15.9074 14.8687 15.7558 12.1703 14.813C10.6305 13.7573 10.0999 13.0236 9.29455 11.3547C9.14477 9.66324 9.14477 9.66324 9.19869 7.8964C9.21253 7.30681 9.22637 6.71721 9.24063 6.10974C9.25842 5.6628 9.27622 5.21586 9.29455 4.75537Z" fill="white"/>
</svg>