<svg xmlns="http://www.w3.org/2000/svg" width="32" height="32" viewBox="0 0 32 32" fill="none">
  <path d="M15.2915 0.492432C15.2915 3.85142 15.2915 7.21042 15.2915 10.6712C14.3229 11.1511 13.3544 11.6309 12.3565 12.1253C11.0062 14.0125 11.031 16.1989 11.3782 18.4264C12.2959 19.639 12.9625 20.1808 14.3131 20.85C17.1887 21.1609 17.1887 21.1609 19.6328 19.82C20.7626 18.5106 20.7626 18.5106 20.9703 16.9723C21.6506 15.5182 21.6506 15.5182 22.4753 15.0565C23.5573 14.6831 24.6339 14.3923 25.7473 14.1247C26.3111 13.971 26.3111 13.971 26.8862 13.8142C28.6644 13.3447 30.0572 13.0947 31.923 13.0947C32.2237 18.3754 31.7724 22.2963 28.2237 26.3938C27.6717 26.9773 27.1117 27.5536 26.5422 28.1205C26.2919 28.3804 26.0416 28.6404 25.7836 28.9082C23.3383 31.2071 19.6751 31.9954 16.3959 32C11.7162 31.6853 7.96282 30.3966 4.52988 27.1511C1.4292 23.4932 -0.118105 20.1427 0.00702823 15.3289C0.38348 11.3737 1.85804 7.83246 4.52988 4.85476C5.92751 3.74922 7.38809 2.8355 8.93235 1.94654C9.41662 1.62664 9.90089 1.30673 10.3998 0.977135C12.1299 0.526019 13.4567 0.492432 15.2915 0.492432Z" fill="#BBC3C9"/>
  <path d="M21.5177 0.484599C25.4488 2.45814 28.8416 4.8284 30.745 8.80751C30.8486 9.14196 30.9521 9.47641 31.0588 9.821C29.3371 11.7494 27.3038 12.0358 24.8445 12.6465C24.4173 12.7611 23.9901 12.8758 23.5499 12.9939C19.6031 13.9985 19.6031 13.9985 17.5004 13.2607C16.9982 12.7693 16.9982 12.7693 16.9412 11.5858C16.9438 11.0738 16.9465 10.5617 16.9492 10.0341C16.9508 9.48139 16.9524 8.92872 16.9541 8.35931C16.9583 7.7775 16.9625 7.19569 16.9668 6.59625C16.9691 6.01255 16.9713 5.42884 16.9737 4.82745C16.9796 3.37981 16.9879 1.93221 16.9982 0.484599C18.5809 -0.289746 19.8918 -0.0193222 21.5177 0.484599Z" fill="#BBC3C9"/>
</svg>